PathFileType	4	(X/Y/Z)	/Users/niels/Desktop/University/Third Semester/Perception and Action/Exam/Gymnastics Motion Tracking/Code for Gym Tracking/Analyzed Data/Webcam_Backflip/id5_6_trajectory_Sports2D/id5_6_trajectory_Sports2D_px_person00.trc
DataRate	CameraRate	NumFrames	NumMarkers	Units	OrigDataRate	OrigDataStartFrame	OrigNumFrames
29.77272727272727	29.77272727272727	8	22	m	29.77272727272727	33	132
Frame#	Time	Hip			RHip			RKnee			RAnkle			RBigToe			RSmallToe			RHeel			LHip			LKnee			LAnkle			LBigToe			LSmallToe			LHeel			Neck			Head			Nose			RShoulder			RElbow			RWrist			LShoulder			LElbow			LWrist		
		X1	Y1	Z1	X2	Y2	Z2	X3	Y3	Z3	X4	Y4	Z4	X5	Y5	Z5	X6	Y6	Z6	X7	Y7	Z7	X8	Y8	Z8	X9	Y9	Z9	X10	Y10	Z10	X11	Y11	Z11	X12	Y12	Z12	X13	Y13	Z13	X14	Y14	Z14	X15	Y15	Z15	X16	Y16	Z16	X17	Y17	Z17	X18	Y18	Z18	X19	Y19	Z19	X20	Y20	Z20	X21	Y21	Z21	X22	Y22	Z22
33	1.1083969465648855	1.0990100631786244	-0.6106806425166937	0.0	1.1066619518108296	-0.6062872088253527	0.0	1.1035823710005463	-0.5058235112563659	0.0	1.1953959811332011	-0.5373643591853376	0.0	1.207212331394802	-0.5032224804428873	0.0	1.2154918446144867	-0.5114907610123828	0.0	1.203140391198571	-0.5514557866365091	0.0	1.085557980400206	-0.6130422419535755	0.0	1.0838165651223743	-0.519875464566226	0.0	1.1634100344055103	-0.5536933976081665	0.0	1.183783128784893	-0.5223841772950641	0.0	1.1788730606254438	-0.5285139768883989	0.0	1.1770890355620336	-0.5664749161591642	0.0	0.9617555901481772	-0.5828140080804828	0.0	0.8929611532677061	-0.5724660571291598	0.0	0.930818158065341	-0.549756712366142	0.0	0.9868457897341951	-0.5635259127136801	0.0	1.054388410862998	-0.5122934690475053	0.0	1.0826474252916214	-0.4500911165153727	0.0	0.9649015274957561	-0.5953842979879973	0.0	0.9969256377392243	-0.5615143079498409	0.0	1.0157941084339723	-0.5306760129852028	0.0
34	1.1419847328244275	1.1104410032968544	-0.5825344456157697	0.0	1.1171262295560147	-0.5775834907929965	0.0	1.0727846233028915	-0.4877672012293493	0.0	1.1743924065916693	-0.4833146342220807	0.0	1.174517219072169	-0.44233786806024905	0.0	1.184766029677812	-0.4498112874445389	0.0	1.1837571790688712	-0.4928916707910962	0.0	1.0987398637120025	-0.5849862680640696	0.0	1.0577970819543268	-0.5006178965415675	0.0	1.1470848619422966	-0.5001705154282012	0.0	1.1576475542592604	-0.46228136923184493	0.0	1.1541392285338863	-0.46714399717929717	0.0	1.1649779355209502	-0.5072774915310735	0.0	0.9742966178642786	-0.5974586520986661	0.0	0.9074999879025055	-0.6025095284045626	0.0	0.938944959463819	-0.5741044739570669	0.0	0.9962242980104071	-0.5743723882475172	0.0	1.0590372839387872	-0.5187067925219138	0.0	1.0754799354826718	-0.4591910183894454	0.0	0.9821307548737824	-0.6072029839664198	0.0	1.0178854780413238	-0.5647560992945788	0.0	1.0409520486422845	-0.5448973316778508	0.0
35	1.1755725190839694	1.1183132826483586	-0.5548548275912044	0.0	1.1232068657040912	-0.5496398297221051	0.0	1.044610383557503	-0.48447359347972563	0.0	1.1415684605697503	-0.44560327545398065	0.0	1.1285949603277972	-0.4065669017585046	0.0	1.1400685396240626	-0.4118267728893441	0.0	1.1506179866225086	-0.44974037693992597	0.0	1.1100345175960786	-0.5576092720394978	0.0	1.0353740153793134	-0.4960904604774393	0.0	1.120227293727051	-0.46231426468305503	0.0	1.1186196348261968	-0.424165958388012	0.0	1.1166521940402472	-0.427371519851039	0.0	1.138921086590298	-0.4620220651537256	0.0	0.994473816619208	-0.613761645848046	0.0	0.9332465540476134	-0.6354491764189207	0.0	0.956316306565172	-0.6024869566312638	0.0	1.0113171726867636	-0.5870507340256208	0.0	1.0628539383568256	-0.5247348290745789	0.0	1.0613583059331573	-0.4698516960900438	0.0	1.0063001460168335	-0.6201416087169775	0.0	1.0460448023529625	-0.5681415435410586	0.0	1.0733436930400717	-0.5636883924352148	0.0
36	1.2091603053435116	1.1211597037967103	-0.5299296282592107	0.0	1.1235499001146692	-0.524993940609786	0.0	1.0228495432901301	-0.4932560991592749	0.0	1.1004903876502767	-0.42584096881760064	0.0	1.0751525730971354	-0.396472623180128	0.0	1.086789178729754	-0.39850448231356655	0.0	1.1075035591955926	-0.42408508689985247	0.0	1.1171172146472332	-0.5334277119568825	0.0	1.0195346029580648	-0.5035831067983707	0.0	1.0858349931982694	-0.4419519770712641	0.0	1.0704802259072108	-0.40940368614467193	0.0	1.0704061828627576	-0.4109051398288315	0.0	1.102033829987442	-0.43336853584514917	0.0	1.0218865490930065	-0.6282805804506923	0.0	0.9704325355182086	-0.6665714195239837	0.0	0.9834571751314801	-0.6310706467341654	0.0	1.032043246233516	-0.5987512715131099	0.0	1.066481833797597	-0.5307933548870936	0.0	1.0447922366925644	-0.48400860965434306	0.0	1.0363193683816807	-0.6314919892967042	0.0	1.0768209835313307	-0.5745586028794172	0.0	1.108490778616966	-0.5878169534936605	0.0
37	1.2427480916030536	1.118661678375843	-0.5102771999537142	0.0	1.1181573892919747	-0.5061147510808227	0.0	1.0095009209403638	-0.5111226194499588	0.0	1.0554574174574465	-0.4246182795725553	0.0	1.020270438766212	-0.4100459494701596	0.0	1.030759774693394	-0.40835160981592605	0.0	1.0591433629731974	-0.4170864029772398	0.0	1.118558359014683	-0.5150701961847839	0.0	1.0112806982466136	-0.519760244554105	0.0	1.0475294888382527	-0.44007875742264807	0.0	1.0188740517990547	-0.41773636823786453	0.0	1.0209340398837956	-0.41784248378494576	0.0	1.0590258548464704	-0.42361459756912967	0.0	1.0548390780101202	-0.6382487545547693	0.0	1.0171254734442585	-0.6912437620616733	0.0	1.0193869730617555	-0.6558557180758345	0.0	1.0575682540011717	-0.6074898339525274	0.0	1.071009497659278	-0.5379894868746569	0.0	1.0317240854298966	-0.5037166172557361	0.0	1.0700142599838678	-0.6388002739438472	0.0	1.1066895696555121	-0.5853295741969675	0.0	1.1428909525340316	-0.6140863867804072	0.0
38	1.2763358778625955	1.1115836945258397	-0.4980201485594653	0.0	1.1081409443297052	-0.4948584456001418	0.0	1.0044872739888773	-0.5354010205341292	0.0	1.011164316831859	-0.44203887577405004	0.0	0.9706152552349966	-0.4448571017470073	0.0	0.978538655899973	-0.4394416545329168	0.0	1.010746865878484	-0.4297339187793098	0.0	1.1144892682213574	-0.50449892336554	0.0	1.0098158832530268	-0.541812839291202	0.0	1.0096718023385534	-0.45729330945357594	0.0	0.9712694806697212	-0.44840716839243827	0.0	0.9751571558999952	-0.44763906487822275	0.0	1.0153794881558804	-0.4350196480905709	0.0	1.0905042346080018	-0.6420331070686269	0.0	1.0695474181086413	-0.7058456638815812	0.0	1.061578472675261	-0.6733535297468717	0.0	1.0863086562021251	-0.6122877416933022	0.0	1.0777098758226162	-0.5471503153853932	0.0	1.0278580126523775	-0.5296119615498998	0.0	1.1044426999189216	-0.6402447549937106	0.0	1.133331002500925	-0.5987462546988866	0.0	1.1741204154031692	-0.6369457594064283	0.0
39	1.3099236641221375	1.1013366444691353	-0.4944946013174978	0.0	1.095222479472096	-0.4922764783703521	0.0	1.0061420259012694	-0.5638603327357798	0.0	0.9724742945898199	-0.47767521902151217	0.0	0.9328552127585156	-0.49835319878719603	0.0	0.9370379831999204	-0.48980598431482	0.0	0.9676529673701897	-0.4626260310460823	0.0	1.106357965960157	-0.5025682170863671	0.0	1.0133145252420563	-0.5678080703408195	0.0	0.9770139508173569	-0.4930119597846535	0.0	0.9353141889279022	-0.4992829246025423	0.0	0.9402186465278649	-0.498089453192746	0.0	0.9765254116317713	-0.46837834878892076	0.0	1.125377330482518	-0.6392012885924527	0.0	1.1229210994817547	-0.7085841479863457	0.0	1.106118666642176	-0.6812559894258675	0.0	1.115885747918635	-0.6129042343113171	0.0	1.0876591125372919	-0.5585743173521838	0.0	1.0367901229818253	-0.5608752854661301	0.0	1.1364985600833302	-0.635071332514265	0.0	1.1547234988114008	-0.6100265068495984	0.0	1.1994792250151693	-0.6515837470724726	0.0
40	1.3435114503816794	1.0895213261484518	-0.5001863601180008	0.0	1.0813189035705144	-0.4986569710834834	0.0	1.011956065678538	-0.5947281326874273	0.0	0.9440014754159848	-0.5299138454280489	0.0	0.9121747960494305	-0.5666213196372903	0.0	0.9120522206808774	-0.556209134334351	0.0	0.934891024935154	-0.5148317590659277	0.0	1.0961234859545086	-0.5091748535397708	0.0	1.0196708050644971	-0.5965877613341102	0.0	0.9537029536965382	-0.5446790528104238	0.0	0.916479305397786	-0.5657293635278129	0.0	0.9215256076077293	-0.5642791974206054	0.0	0.9470570213416413	-0.5215521581498382	0.0	1.1558722288816288	-0.6305566387717689	0.0	1.1723855996709254	-0.7000167453919534	0.0	1.1483251083470813	-0.6791070820397739	0.0	1.1433303751722756	-0.6096471179452176	0.0	1.1015218889089635	-0.5720957933024267	0.0	1.0585715549217733	-0.5956139113764045	0.0	1.1634972796531866	-0.6240384852422487	0.0	1.1693708757454337	-0.6142053687465571	0.0	1.2153763753539746	-0.6567168483834208	0.0
